HIERARCHY
ROOT RootJoint
{
    OFFSET   0.000000   0.000000   0.000000
    CHANNELS 6 Xposition Yposition Zposition Xrotation Yrotation Zrotation
    JOINT lHip
    {
        OFFSET   0.100000  -0.051395   0.000000
        CHANNELS 3 Xrotation Yrotation Zrotation
        JOINT lKnee
        {
            OFFSET   0.000000  -0.410000   0.000000
            CHANNELS 3 Xrotation Yrotation Zrotation
            JOINT lAnkle
            {
                OFFSET   0.000000  -0.390000   0.000000
                CHANNELS 3 Xrotation Yrotation Zrotation
                JOINT lToeJoint
                {
                    OFFSET   0.000000  -0.050000   0.130000
                    CHANNELS 3 Xrotation Yrotation Zrotation
                    End Site
                    {
                        OFFSET   0.010000   0.002000   0.060000
                    }
                }
            }
        }
    }
    JOINT rHip
    {
        OFFSET  -0.100000  -0.051395   0.000000
        CHANNELS 3 Xrotation Yrotation Zrotation
        JOINT rKnee
        {
            OFFSET   0.000000  -0.410000   0.000000
            CHANNELS 3 Xrotation Yrotation Zrotation
            JOINT rAnkle
            {
                OFFSET   0.000000  -0.390000   0.000000
                CHANNELS 3 Xrotation Yrotation Zrotation
                JOINT rToeJoint
                {
                    OFFSET   0.000000  -0.050000   0.130000
                    CHANNELS 3 Xrotation Yrotation Zrotation
                    End Site
                    {
                        OFFSET  -0.010000   0.002000   0.060000
                    }
                }
            }
        }
    }
    JOINT pelvis_lowerback
    {
        OFFSET   0.000000   0.093605   0.000000
        CHANNELS 3 Xrotation Yrotation Zrotation
        JOINT lowerback_torso
        {
            OFFSET   0.000000   0.100000   0.000000
            CHANNELS 3 Xrotation Yrotation Zrotation
            JOINT torso_head
            {
                OFFSET   0.000000   0.282350   0.000000
                CHANNELS 3 Xrotation Yrotation Zrotation
                End Site
                {
                    OFFSET   0.000000   0.192650   0.000000
                }
            }
            JOINT lTorso_Clavicle
            {
                OFFSET   0.001000   0.157500   0.000000
                CHANNELS 3 Xrotation Yrotation Zrotation
                JOINT lShoulder
                {
                    OFFSET   0.117647   0.000000   0.000000
                    CHANNELS 3 Xrotation Yrotation Zrotation
                    JOINT lElbow
                    {
                        OFFSET   0.245000   0.000000   0.000000
                        CHANNELS 3 Xrotation Yrotation Zrotation
                        JOINT lWrist
                        {
                            OFFSET   0.240000   0.000000   0.000000
                            CHANNELS 3 Xrotation Yrotation Zrotation
                            End Site
                            {
                                OFFSET   0.116353  -0.002500   0.000000
                            }
                        }
                    }
                }
            }
            JOINT rTorso_Clavicle
            {
                OFFSET  -0.001000   0.157500   0.000000
                CHANNELS 3 Xrotation Yrotation Zrotation
                JOINT rShoulder
                {
                    OFFSET  -0.117647   0.000000   0.000000
                    CHANNELS 3 Xrotation Yrotation Zrotation
                    JOINT rElbow
                    {
                        OFFSET  -0.245000   0.000000   0.000000
                        CHANNELS 3 Xrotation Yrotation Zrotation
                        JOINT rWrist
                        {
                            OFFSET  -0.240000   0.000000   0.000000
                            CHANNELS 3 Xrotation Yrotation Zrotation
                            End Site
                            {
                                OFFSET  -0.116353  -0.002500   0.000000
                            }
                        }
                    }
                }
            }
        }
    }
}
MOTION
Frames: 8
Frame Time:   0.010000
 -0.257078   0.903380  -0.035934 100.791600 -78.646500 103.588900 -33.865400  -6.181000  -5.101400  34.075300   0.000000   0.000000  -1.851200  24.623600  -7.688300  14.873900   0.000000   0.000000  -1.816500   7.125100   2.293300   1.057100   0.000000   0.000000  -8.132300  -5.288900  20.238900  19.525100   0.000000   0.000000  -9.781800   5.223800  -8.911200  10.983900  -3.916000   7.552100 -30.165384 -21.934717  -8.719251  16.023700  20.130800  -1.296900 -14.882900 -20.053000 -80.243800   0.000000  -9.706600   0.000000   0.679100 -16.412900   0.076600  16.608000 -14.684900   1.326500 -26.713700  28.540700  71.187200  -0.000100  14.616100   0.000000  -5.684500  -2.852700  -4.637900
 -0.265446   0.902425  -0.035655 102.304702 -78.487650 105.241281 -33.769407  -5.460197  -5.215952  30.929540   0.000000   0.000000  -0.631112  22.671286  -9.100252  11.948780   0.000000   0.000000  -1.585402   7.225624   2.123503   1.565860   0.000000   0.000000  -8.713496  -5.044860  20.365160  19.871420   0.000000   0.000000  -9.853040   5.260640  -8.929921  11.033980  -3.896936   7.499181 -30.084809 -21.713151  -8.689001  16.089618  20.150563  -1.417059 -14.657862 -20.000936 -80.004102   0.000000  -9.647780   0.000000   0.659139 -16.401601   0.032120  16.602462 -14.615680   1.384680 -26.806512  28.949402  71.189698  -0.000100  14.857220   0.000000  -5.714718  -2.847872  -4.593102
 -0.274011   0.901352  -0.035444 103.463947 -78.370068 106.502766 -33.554414  -4.641674  -5.321410  27.686140   0.000000   0.000000   0.818551  20.746676 -10.359308  10.987940   0.000000   0.000000  -1.286524   7.240536   1.993431   2.013620   0.000000   0.000000  -9.327490  -4.738163  20.810317  21.353340   0.000000   0.000000  -9.906320   5.277560  -8.930360  11.091140  -3.893140   7.460740 -30.011978 -21.531416  -8.670434  16.115779  20.160602  -1.518940 -14.422024 -20.006808 -79.740424   0.000000  -9.608060   0.000000   0.637819 -16.376480  -0.007403  16.602820 -14.568000   1.410762 -26.883373  29.320523  71.222255  -0.000100  15.067020   0.000000  -5.804799  -2.811158  -4.520069
 -0.282735   0.900111  -0.035392 104.197109 -78.295072 107.288308 -33.247232  -3.909290  -5.403853  24.417160   0.000000   0.000000   2.495267  19.001827 -11.981070  10.150520   0.000000   0.000000  -0.937968   7.206143   1.932287   2.438180   0.000000   0.000000  -9.940067  -4.558011  21.226007  22.099800   0.000000   0.000000  -9.939140   5.277320  -8.921300  11.144840  -3.899438   7.443099 -29.977801 -21.410321  -8.665607  16.147225  20.141524  -1.587824 -14.229819 -19.989192 -79.474424   0.000000  -9.625160   0.000000   0.634521 -16.338920  -0.006378  16.611339 -14.553120   1.418500 -26.922978  29.662823  71.281306  -0.000100  15.259680   0.000000  -5.906558  -2.768194  -4.489823
 -0.291490   0.898750  -0.035446 104.443514 -78.221124 107.554114 -32.933932  -3.202794  -5.497160  21.194360   0.000000   0.000000   4.025318  17.501077 -13.299967   9.622200   0.000000   0.000000  -0.602737   7.094035   1.929984   2.853140   0.000000   0.000000 -10.494307  -4.581758  21.375353  21.916160   0.000000   0.000000  -9.962220   5.249360  -8.917539  11.172120  -3.927520   7.447540 -29.932902 -21.330106  -8.640409  16.169702  20.111081  -1.649381 -14.074998 -19.970182 -79.194958   0.000000  -9.663960   0.000000   0.649562 -16.304920   0.034301  16.602740 -14.565280   1.435660 -26.877582  29.934138  71.326159  -0.000100  15.531600   0.000000  -5.885834  -2.811074  -4.527666
 -0.300417   0.897279  -0.035504 104.514700 -78.159200 107.639800 -32.569200  -2.460900  -5.614100  18.016100   0.000000   0.000000   5.206700  16.161900 -14.064600   9.264600   0.000000   0.000000  -0.233100   6.869600   1.937000   3.250300   0.000000   0.000000 -11.037900  -4.541800  21.730500  22.020800   0.000000   0.000000 -10.024000   5.220700  -8.922900  11.263800  -3.955400   7.472400 -29.985828 -21.296499  -8.634458  16.147900  20.075200  -1.713300 -13.948200 -19.941700 -78.910300   0.000000  -9.708800   0.000000   0.639900 -16.328300   0.042200  16.601500 -14.572500   1.431500 -26.857500  30.202500  71.369200  -0.000100  15.704700   0.000000  -5.971300  -2.783100  -4.461900
 -0.309314   0.895721  -0.035586 104.286240 -78.036419 107.394320 -32.260109  -1.825537  -5.733796  14.944920   0.000000   0.000000   5.953387  15.128058 -14.272882   9.148580   0.000000   0.000000   0.043736   6.438130   1.979049   3.679800   0.000000   0.000000 -11.623253  -4.375812  22.360587  22.543600   0.000000   0.000000 -10.076439   5.188397  -8.919737  11.233558  -3.988780   7.506800 -30.032714 -21.293732  -8.632241  16.260484  19.999396  -1.849180 -13.955264 -19.838664 -78.580942   0.000000  -9.798860   0.000000   0.773479 -16.283781   0.087119  16.668259 -14.580742   1.473820 -26.824080  30.364182  71.345200  -0.000100  15.878120   0.000000  -6.008068  -2.833139  -4.191945
 -0.318343   0.894167  -0.035708 103.940008 -77.910588 107.048048 -31.883241  -1.063406  -5.867979  11.923240   0.000000   0.000000   6.459091  14.272047 -14.249245   9.033500   0.000000   0.000000   0.329342   5.914508   1.998320   4.100640   0.000000   0.000000 -12.151959  -4.129290  23.037286  22.971080   0.000000   0.000000 -10.155999   5.153395  -8.956298  11.245959  -4.019822   7.557679 -30.099648 -21.342696  -8.604977  16.244296  19.953928  -1.986347 -13.900536 -19.844408 -78.216339   0.000000  -9.857820   0.000000   0.808360 -16.299540   0.110400  16.698300 -14.588501   1.531660 -26.762260  30.600906  71.293544  -0.000100  15.905480   0.000000  -6.107938  -2.771889  -3.971547
